#!OML:ASF \\sashay\E\basketball\basketball\Project 1\Capture day 1\Session 1\Subject.ASF
:FULLY-SPECIFIED
:DEGREES
242
root -9.30684 13.0297 -1.82358 -179.191 2.45193 -186.696
lowerback 40.4565 -2.31739 -12.126
upperback 12.5801 -2.90493 -4.11184
thorax -4.62619 0.508506 2.69634
lowerneck -7.29492 -3.95061 -13.1544
upperneck -20.3766 2.03991 26.0606
head -4.74799 2.24842 11.0122
rclavicle 4.69132e-014 2.38542e-015
rhumerus -28.2913 -38.2868 -48.6406
rradius 56.3705
rwrist -29.5531
rhand -44.4939 63.2044
rfingers 7.12502
rthumb -17.2966 33.9541
lclavicle 4.69132e-014 2.38542e-015
lhumerus -6.96833 23.8798 65.7211
lradius 57.7995
lwrist 24.8548
lhand -31.8446 19.0368
lfingers 7.12502
lthumb -5.09873 48.9555
rfemur -60.2254 -29.3412 7.52108
rtibia 87.2753
rfoot -20.822 -7.68243
rtoes -47.4053
lfemur -21.1597 15.4232 9.94831
ltibia 40.7299
lfoot 2.81267 0.063349
ltoes -51.3972
243
root -9.72935 12.9647 -1.81428 -179.1 2.69108 -186.492
lowerback 40.5454 -2.35609 -11.7809
upperback 12.5545 -2.86619 -3.82398
thorax -4.71299 0.504664 2.81933
lowerneck -7.52096 -4.0351 -12.5486
upperneck -20.4932 1.99487 26.0007
head -4.73787 2.21858 10.8691
rclavicle 2.22639e-014 1.27222e-014
rhumerus -27.7039 -38.5509 -50.2994
rradius 55.9296
rwrist -29.6133
rhand -44.5438 62.6675
rfingers 7.12502
rthumb -17.3446 33.4214
lclavicle 2.22639e-014 1.27222e-014
lhumerus -6.34967 23.9336 68.5283
lradius 56.2134
lwrist 24.0888
lhand -31.6458 18.9929
lfingers 7.12502
lthumb -4.90676 48.9161
rfemur -59.6412 -28.5902 5.60668
rtibia 85.9441
rfoot -20.4267 -7.62919
rtoes -47.2706
lfemur -20.4505 16.1864 9.40358
ltibia 40.3224
lfoot -1.27246 0.244223
ltoes -49.8392
244
root -10.1375 12.9319 -1.79331 -178.871 2.99394 -186.484
lowerback 40.6193 -2.25348 -11.7392
upperback 12.4109 -2.81703 -3.46944
thorax -4.8938 0.487034 3.15971
lowerneck -7.59555 -4.13405 -12.3761
upperneck -20.4952 1.95174 26.3712
head -4.70834 2.19126 10.9797
rclavicle -6.36111e-015 1.59028e-015
rhumerus -27.1698 -38.933 -51.8358
rradius 55.6985
rwrist -29.7434
rhand -44.3184 62.7016
rfingers 7.12502
rthumb -17.1277 33.4365
lclavicle -6.36111e-015 1.59028e-015
lhumerus -5.69035 24.0471 71.2809
lradius 54.5301
lwrist 23.2184
lhand -31.294 18.8611
lfingers 7.12502
lthumb -4.56701 48.7919
rfemur -59.0775 -27.4171 3.73312
rtibia 84.1631
rfoot -19.0854 -7.7629
rtoes -47.7419
lfemur -20.6467 16.9798 8.36966
ltibia 41.3608
lfoot -6.19609 -0.0361597
ltoes -49.6389
245
root -10.5362 12.9496 -1.75103 -178.435 3.07533 -186.587
lowerback 40.7513 -2.17857 -11.9218
upperback 12.1684 -2.93467 -2.80777
thorax -5.15085 0.358541 4.00081
lowerneck -7.56429 -4.2003 -13.1516
upperneck -20.5735 2.00267 27.0261
head -4.72708 2.24852 11.4076
rclavicle -3.02153e-014 7.95139e-015
rhumerus -26.2328 -38.6033 -53.1743
rradius 55.558
rwrist -30.1884
rhand -44.1795 63.1014
rfingers 7.12502
rthumb -16.994 33.8248
lclavicle -3.02153e-014 7.95139e-015
lhumerus -5.15883 24.7047 74.2821
lradius 53.0463
lwrist 22.0093
lhand -30.3193 18.9222
lfingers 7.12502
lthumb -3.62578 48.8711
rfemur -58.381 -25.8078 1.76146
rtibia 82.0942
rfoot -16.8643 -7.91574
rtoes -48.2097
lfemur -22.0616 17.3231 6.8878
ltibia 43.6665
lfoot -8.97748 0.299622
ltoes -56.1486
246
root -10.9047 12.971 -1.70262 -178.163 3.7344 -186.5
lowerback 41.0154 -1.69947 -12.4306
upperback 12.0783 -2.59529 -2.19728
thorax -5.30115 0.465031 4.78145
lowerneck -7.79125 -4.34725 -13.4212
upperneck -20.818 2.03704 27.5482
head -4.75185 2.31532 11.6892
rclavicle -2.62396e-014 1.74931e-014
rhumerus -25.4934 -38.2549 -54.746
rradius 55.9691
rwrist -30.6641
rhand -44.4279 63.4942
rfingers 7.12502
rthumb -17.2331 34.2383
lclavicle -2.62396e-014 1.74931e-014
lhumerus -4.14291 25.1457 77.0856
lradius 51.7065
lwrist 20.6787
lhand -29.4507 18.721
lfingers 7.12502
lthumb -2.787 48.6826
rfemur -57.9534 -23.1751 0.0587911
rtibia 80.2415
rfoot -14.4113 -7.31915
rtoes -48.3051
lfemur -24.6663 20.9068 5.90053
ltibia 47.0941
lfoot -8.7263 -3.35302
ltoes -54.6487
247
root -11.2619 12.9098 -1.66688 -177.907 4.61416 -186.411
lowerback 41.1931 -1.10764 -12.7189
upperback 12.1619 -1.93911 -1.98676
thorax -5.31392 0.76639 4.90475
lowerneck -8.34191 -4.77696 -12.6451
upperneck -21.2059 1.7445 27.8909
head -4.69755 2.21355 11.6782
rclavicle -7.95139e-016 2.62396e-014
rhumerus -25.4319 -38.8646 -56.4654
rradius 56.9513
rwrist -31.4533
rhand -44.2154 63.2661
rfingers 7.12502
rthumb -17.0286 33.9925
lclavicle -7.95139e-016 2.62396e-014
lhumerus -2.46817 24.6596 79.4503
lradius 50.4015
lwrist 19.4509
lhand -29.226 17.8582
lfingers 7.12502
lthumb -2.56996 47.8225
rfemur -58.4604 -21.0523 -1.43929
rtibia 79.0279
rfoot -13.2472 -5.94081
rtoes -48.609
lfemur -27.1925 24.4202 4.95934
ltibia 50.6194
lfoot -8.42169 -6.38014
ltoes -54.8351
